<svg id="b2a0e907-8455-4d90-8bd8-be1f82733546" data-name="Layer 1" xmlns="http://www.w3.org/2000/svg" viewBox="0 0 366.23 404.11"><title>logo</title><path d="M499.85,380.11V181.61c0-3.6,0-3.6,3.65-3.6H862.25c3.82,0,3.83,0,3.83,3.77V578.27c0,3.85,0,3.85-3.76,3.85h-359c-3.48,0-3.48,0-3.48-3.51Zm351,.14V197c0-3.49,0-3.49-3.54-3.49H518.79c-3.91,0-3.91,0-3.91,4V562.76c0,4,0,4,3.94,4H847.3c3.51,0,3.51,0,3.51-3.55Z" transform="translate(-499.85 -178.01)"/><path d="M746.57,438.79c0-3.91.13-7.4,0-10.88-.4-9.17-2.2-17.85-8.91-24.78-5.48-5.67-12.32-9-19.63-11.46-10.14-3.47-20.71-4.14-31.29-4.41-9.24-.23-18.5-.1-27.75,0-6.11,0-9.36,3-10.07,9.14a42.09,42.09,0,0,0-.26,4.49q0,43.13,0,86.24c0,6.82,1.45,13.23,5.29,19,5.11,7.61,12.68,11.56,21.15,14.12s17.32,3.31,26.16,3.51c2,.05,2.85.54,2.74,2.68a87,87,0,0,0,0,9c.12,2.26-.79,3-2.92,2.81-1.49-.13-3,0-4.5,0H551.05c-3.65,0-3.65,0-3.65-3.68V524c4.3-.37,8.42-.61,12.52-1.08,7.26-.83,14.24-2.69,20.48-6.65,9.82-6.21,13.68-15.69,14.42-26.81.11-1.58.06-3.17.06-4.75q0-100.74,0-201.49a44.3,44.3,0,0,0-4-19.64c-4.69-9.65-12.81-15-22.76-18.07a71.82,71.82,0,0,0-21.7-3c-2.11,0-2.74-.71-2.67-2.75.14-3.82,0-7.64,0-11.72,1.1-.06,2-.15,2.85-.15q135.24,0,270.49-.07c2.75,0,3.36,1.09,3.59,3.41,1.14,11.93,2.41,23.85,3.57,35.77,1.3,13.34,2.53,26.67,3.81,40,.17,1.82.39,3.64.68,5.45.21,1.29-.26,1.89-1.53,2-5.31.41-10.62.83-15.92,1.29-2,.17-2-1.38-2.35-2.6-1.58-5.51-2.85-11.13-4.75-16.53-5.62-16-15.23-28.76-30.48-36.75-11.92-6.24-24.77-9.17-38.13-9.75-17.14-.73-34.29-1.24-51.44-1.7-7.59-.21-15.16.21-22.47,2.6-5.79,1.9-10.58,5.06-12.34,11.28a24.82,24.82,0,0,0-.67,6.68q-.06,39.36,0,78.74c0,9.44,4,14.8,13.27,16.91a67.94,67.94,0,0,0,14.8,1.87c10.4,0,20.83-.2,31.2-.93,8.27-.58,16.28-2.5,22.84-8.23a31.5,31.5,0,0,0,9.3-14.54c2.15-6.8,4-13.72,5.74-20.64.59-2.27,1.47-3.35,4-3.21,4.15.24,8.33.17,12.5,0,2.32-.08,3,.79,3,3.05-.09,11,0,22,0,33,0,26.83,0,53.66.05,80.49,0,2.43-.48,3.4-3.15,3.28C757.14,438.63,752.06,438.79,746.57,438.79Z" transform="translate(-499.85 -178.01)"/></svg>